<svg xmlns="http://www.w3.org/2000/svg" xmlns:xlink="http://www.w3.org/1999/xlink" viewBox="0 0 151.31 111.88"><defs><style>.cls-1{fill:url(#Безымянный_градиент_50);}.cls-2{fill:url(#Безымянный_градиент_50-2);}.cls-3{fill:url(#Безымянный_градиент_50-3);}.cls-4{fill:url(#Безымянный_градиент_50-4);}.cls-5{fill:url(#Безымянный_градиент_50-5);}.cls-6{fill:url(#Безымянный_градиент_50-6);}.cls-7{fill:url(#Безымянный_градиент_38);}</style><linearGradient id="Безымянный_градиент_50" x1="215.516" y1="177.902" x2="209.255" y2="248.337" gradientUnits="userSpaceOnUse"><stop offset="0" stop-color="#f5f5f5"/><stop offset="0.14" stop-color="#f2f2f2"/><stop offset="0.228" stop-color="#eaeaea"/><stop offset="0.302" stop-color="#dbdbdb"/><stop offset="0.367" stop-color="#c7c7c7"/><stop offset="0.427" stop-color="#acacac"/><stop offset="0.461" stop-color="#999"/><stop offset="0.695" stop-color="#cfcfcf"/><stop offset="1" stop-color="#ededed"/></linearGradient><linearGradient id="Безымянный_градиент_50-2" x1="288.482" y1="184.388" x2="282.221" y2="254.823" xlink:href="#Безымянный_градиент_50"/><linearGradient id="Безымянный_градиент_50-3" x1="251.796" y1="181.127" x2="245.535" y2="251.561" xlink:href="#Безымянный_градиент_50"/><linearGradient id="Безымянный_градиент_50-4" x1="254.133" y1="181.335" x2="247.872" y2="251.769" xlink:href="#Безымянный_градиент_50"/><linearGradient id="Безымянный_градиент_50-5" x1="255.044" y1="181.416" x2="248.783" y2="251.85" xlink:href="#Безымянный_градиент_50"/><linearGradient id="Безымянный_градиент_50-6" x1="80.056" y1="0.905" x2="73.795" y2="71.34" xlink:href="#Безымянный_градиент_50"/><linearGradient id="Безымянный_градиент_38" x1="249.53" y1="266.753" x2="249.53" y2="285.393" gradientUnits="userSpaceOnUse"><stop offset="0" stop-color="#e6d9b0"/><stop offset="0.461" stop-color="#99713d"/><stop offset="0.856" stop-color="#cfb37e"/><stop offset="1" stop-color="#ba9660"/></linearGradient></defs><g id="OBJECTS"><path class="cls-1" d="M250,180.412c-18.7,0-34.39,1.978-40.174,4.617S197.6,200.443,197.6,200.443s-3.962-.732-5.388-2.052,2.218-4.885-6.551-4.885-9.192,4.69,0,7.524,9.192,4.2,9.192,4.2c-10.143,0-14,5.2-15.927,14-1.907,8.7-3.724,21.571,2.826,27.63-2.007-8.6,2.007-13.583,11.833-9.186-11.252-8.745-13.154-20.569-6.973-22.132s27.852,11.628,27.852,11.628c-6.933-7.378-19.136-15.415-19.136-17.369s8.717-19.617,16.323-22.744S250,183.343,250,183.343Z" transform="translate(-173.875 -180.412)"/><path class="cls-2" d="M250,180.412c18.7,0,34.39,1.978,40.174,4.617S302.4,200.443,302.4,200.443s3.962-.732,5.388-2.052-2.218-4.885,6.551-4.885,9.191,4.69,0,7.524-9.192,4.2-9.192,4.2c10.143,0,14,5.2,15.927,14,1.906,8.7,3.724,21.571-2.826,27.63,2.007-8.6-2.007-13.583-11.833-9.186,11.252-8.745,13.154-20.569,6.973-22.132s-27.852,11.628-27.852,11.628c6.933-7.378,19.136-15.415,19.136-17.369s-8.717-19.617-16.324-22.744S250,183.343,250,183.343Z" transform="translate(-173.875 -180.412)"/><path class="cls-3" d="M298.375,196.655C302.5,203.51,250,203.277,250,203.277s-52.5.233-48.375-6.622l-2.451,4.673c2.218,2.052,32.126,2.926,50.826,2.926s48.608-.874,50.826-2.926Z" transform="translate(-173.875 -180.412)"/><path class="cls-4" d="M280.19,227.828C272.5,229.954,250,229.7,250,229.7s-22.5.257-30.19-1.869c5.309,2.566,16.085,4.178,30.19,4.178S274.881,230.394,280.19,227.828Z" transform="translate(-173.875 -180.412)"/><path class="cls-5" d="M281.59,236.11c3.8,6.254.845,10.553-9.3,11.237-9.6.648-19.981.682-21.066.684-1.323,0-13.919-.036-23.519-.684-10.142-.684-13.1-4.983-9.3-11.237-8.241,4.495-16.059,4.3-20.919,2.052,1.242,2.6,8.241,7.573,14.844,9.967,6.426,2.33,21.209,2.539,38.792,2.541h.22c17.56,0,29.892-.211,36.318-2.541,6.6-2.394,13.6-7.365,14.844-9.967C297.649,240.409,289.831,240.605,281.59,236.11Z" transform="translate(-173.875 -180.412)"/><ellipse class="cls-6" cx="76.125" cy="45.126" rx="3.566" ry="1.228"/></g><g id="TEXTS"><path class="cls-7" d="M195.683,290.926a18.449,18.449,0,0,1-7.6,1.365c-8.108,0-14.211-5.121-14.211-14.554,0-9,6.1-15.108,15.022-15.108a15.427,15.427,0,0,1,6.829,1.28l-.9,3.03a13.54,13.54,0,0,0-5.805-1.194c-6.743,0-11.224,4.311-11.224,11.864,0,7.042,4.054,11.567,11.053,11.567a14.855,14.855,0,0,0,6.061-1.2Z" transform="translate(-173.875 -180.412)"/><path class="cls-7" d="M205.16,282.816l-2.987,9.048h-3.841l9.773-28.765h4.481l9.816,28.765h-3.968l-3.074-9.048Zm9.432-2.9-2.817-8.279c-.64-1.878-1.067-3.585-1.493-5.25H210.2c-.426,1.707-.9,3.457-1.451,5.207l-2.817,8.322Z" transform="translate(-173.875 -180.412)"/><path class="cls-7" d="M226.631,263.482a38.778,38.778,0,0,1,7.127-.6c3.97,0,6.53.725,8.323,2.346a7.167,7.167,0,0,1,2.261,5.463,7.551,7.551,0,0,1-5.42,7.341v.128c2.22.769,3.543,2.817,4.225,5.805.939,4.011,1.623,6.786,2.22,7.895h-3.841a37.187,37.187,0,0,1-1.921-6.871c-.854-3.97-2.39-5.463-5.761-5.591h-3.5v12.462h-3.713Zm3.713,13.1h3.8c3.969,0,6.487-2.177,6.487-5.463,0-3.713-2.688-5.335-6.615-5.377a15.318,15.318,0,0,0-3.67.341Z" transform="translate(-173.875 -180.412)"/><path class="cls-7" d="M249.083,287.34a13.158,13.158,0,0,0,6.657,1.878c3.8,0,6.018-2.006,6.018-4.907,0-2.69-1.536-4.226-5.42-5.72-4.694-1.664-7.6-4.1-7.6-8.152,0-4.481,3.713-7.81,9.3-7.81a13.073,13.073,0,0,1,6.359,1.409l-1.024,3.029a11.47,11.47,0,0,0-5.463-1.365c-3.927,0-5.42,2.348-5.42,4.311,0,2.688,1.75,4.011,5.719,5.548,4.865,1.877,7.341,4.225,7.341,8.451,0,4.438-3.286,8.279-10.073,8.279a14.865,14.865,0,0,1-7.34-1.835Z" transform="translate(-173.875 -180.412)"/><path class="cls-7" d="M275.289,282.816l-2.987,9.048h-3.841l9.773-28.765h4.481l9.816,28.765h-3.968l-3.074-9.048Zm9.432-2.9-2.817-8.279c-.639-1.878-1.067-3.585-1.494-5.25h-.085c-.427,1.707-.9,3.457-1.451,5.207l-2.816,8.322Z" transform="translate(-173.875 -180.412)"/><path class="cls-7" d="M320.831,279.231c-.214-4.011-.47-8.835-.427-12.419h-.128c-.981,3.372-2.176,6.957-3.628,10.925l-5.079,13.956h-2.816l-4.652-13.7c-1.366-4.054-2.518-7.766-3.33-11.181h-.084c-.085,3.584-.3,8.408-.555,12.718l-.769,12.334h-3.542l2.006-28.765h4.737l4.909,13.913c1.194,3.543,2.176,6.7,2.9,9.688h.128c.726-2.9,1.749-6.06,3.03-9.688l5.121-13.913h4.738l1.793,28.765h-3.628Z" transform="translate(-173.875 -180.412)"/></g></svg>