<svg width="502" height="206" viewBox="0 0 502 206" fill="none" xmlns="http://www.w3.org/2000/svg">
<path d="M242.149 56.1915C272.129 56.1998 302.006 54.0034 331.881 51.8769C341.833 51.1685 351.752 49.9254 361.663 48.7323C366.166 48.2538 370.462 46.5902 374.113 43.9109C375.877 42.5928 377.655 41.0986 377.166 38.6146C376.71 36.2926 374.536 35.8053 372.609 35.2639C358.051 31.0382 343.158 28.0641 328.093 26.3739C293.982 22.8368 260.28 24.573 227.321 35.0018C214.901 38.9318 203.273 44.7743 191.169 49.4561C182.46 52.8248 173.702 56.0189 164.184 56.1261C161.105 56.2126 157.843 57.9201 155.093 55.0977C173.053 52.0855 189.383 44.4277 205.74 37.0065C257.309 13.6104 310.175 10.8052 364.016 27.3759C389.642 35.2628 415.23 43.1602 441.388 49.1034C442.421 49.3319 455.734 55.2701 456.5 56C435.28 49.1034 394.509 47.2901 370 57.0492C372.129 58.6384 373.931 58.0622 375.554 58.0918C393.523 58.4198 411.511 57.3609 429.463 58.9582C437.104 59.5626 444.644 61.0828 451.922 63.4861C456.061 64.8288 459.834 67.1078 462.948 70.1461C465.615 72.799 472 84 470.5 85.5C469 85.5 465.67 77.7611 465.5 77.5C457.551 65.24 444.636 63.7217 431.305 62.1554C408.376 59.4613 385.439 60.4411 362.591 63.4487C358.344 64.0077 355.958 62.9421 356.458 58.3336C356.847 54.7496 354.417 55.0849 352.292 55.1654C342.481 55.5374 332.676 56.0833 322.864 56.4063C296.584 57.2712 270.312 58.5719 244.003 57.9829C243.628 57.1345 241.457 58.1421 242.149 56.1915Z" fill="white"/>
<path d="M195.144 58.6338C186.911 61.8724 178.228 63.0072 169.529 64.0974C147.313 66.8816 124.992 66.2462 102.691 66.1194C95.1997 66.0387 87.7104 66.4149 80.2648 67.246C63.1795 69.239 50.0024 77.6779 40.278 91.7432C39.11 93.4325 38.3256 95.5469 36.1663 96.5771C34.7821 94.4095 41.8413 84.5343 42.5 83C51 72 59.1329 64.6994 78.5 61.5C88.72 59.812 99.4483 58.4352 109.738 58.3446C130.707 58.1599 151.682 58.6631 172.655 58.8846C180.124 58.963 187.551 57.3811 195.144 58.6338Z" fill="white"/>
<path d="M456.735 141.051C452.722 144.787 449.597 147.429 446.797 150.378C443.935 153.391 441.532 153.82 438.479 150.544C435.669 147.529 432.389 144.95 428.178 141.153C428.178 149.194 428.016 156.035 428.248 162.863C428.36 166.166 427.245 167.033 424.039 167.056C423.486 167.066 422.937 166.965 422.425 166.757C421.912 166.55 421.447 166.242 421.057 165.85C420.667 165.459 420.359 164.992 420.154 164.479C419.949 163.966 419.849 163.417 419.861 162.864C420.078 154.22 419.849 145.565 420 136.918C420.034 134.977 418.616 131.894 421.192 131.262C424.024 130.568 427.349 130.046 430.044 132.816C433.287 136.149 436.97 139.048 440.285 142.315C442.501 144.499 443.823 143.798 446.523 140.337C448.387 137.832 450.724 135.717 453.403 134.111C455.04 133.182 455.911 131.409 457.935 130.984C463.542 129.808 464.961 130.896 464.964 136.598C464.968 145.581 464.84 154.566 465.029 163.544C465.093 166.627 463.785 167.163 461.181 166.977C458.899 166.814 456.527 167.531 456.664 163.676C456.915 156.612 456.735 149.533 456.735 141.051Z" fill="#010101"/>
<path d="M224.727 150.026C229.507 147.356 232.017 143.996 230.827 139.096C229.647 134.246 225.727 132.677 221.247 131.637C216.607 130.567 211.967 131.376 207.367 130.926C203.767 130.566 202.397 131.606 202.517 135.496C202.817 144.466 202.737 153.446 202.547 162.426C202.487 165.696 203.157 167.037 206.847 167.087C210.927 167.147 211.047 165.106 210.867 162.166C210.747 160.176 210.827 158.176 210.847 156.186C210.917 151.546 212.287 150.766 216.537 153.036C220.337 155.167 223.517 158.247 225.767 161.976C229.247 167.396 233.937 167.556 240.027 166.476C234.667 160.846 230.617 154.996 224.727 150.026ZM213.947 145.976C209.067 146.256 211.247 142.577 210.877 140.447C210.317 137.197 212.087 136.346 215.097 137.066C218.087 137.376 222.237 137.476 222.027 141.476C221.797 145.946 217.447 145.776 213.947 145.976V145.976Z" fill="#010101"/>
<path d="M143.507 131.957C141.887 129.187 136.757 128.947 135.227 131.637C129.087 142.467 123.137 153.397 117.157 164.317C116.727 165.097 116.177 166.737 117.497 166.707C120.497 166.647 124.587 168.826 126.057 164.276C128.187 157.686 132.667 155.926 138.977 156.916C140.49 157.138 142.026 157.135 143.537 156.906C147.247 156.396 149.907 157.517 151.247 161.247C153.237 166.817 157.277 168.137 163.327 166.377C156.567 154.617 150.097 143.247 143.507 131.957ZM134.047 150.726C135.349 147.111 137.142 143.692 139.377 140.567C141.427 144.137 143.177 147.196 145.207 150.726H134.047Z" fill="#010101"/>
<path d="M361.157 131.547C360.746 130.848 360.158 130.27 359.452 129.87C358.746 129.471 357.948 129.265 357.137 129.272C356.326 129.279 355.532 129.499 354.833 129.911C354.134 130.322 353.557 130.911 353.157 131.617C347.027 142.447 341.067 153.377 335.087 164.287C334.657 165.067 334.097 166.087 335.377 166.827C337.417 167.997 343.197 166.617 343.947 164.297C346.057 157.727 350.537 155.877 356.897 156.927C358.38 157.143 359.886 157.14 361.367 156.917C365.077 156.407 367.797 157.447 369.137 161.217C371.117 166.777 375.167 168.127 381.247 166.377C374.407 154.487 367.867 142.967 361.157 131.547ZM352.047 150.817C352.907 147.007 355.257 144.277 357.047 140.187C359.317 144.107 361.067 147.147 363.197 150.817H352.047Z" fill="#010101"/>
<path d="M67.5405 167.99C61.0966 167.852 54.4695 166.719 48.8869 162.171C40.6859 155.491 40.2669 143.913 48.0247 136.836C57.393 128.289 72.713 128.393 83.6424 133.288C86.3202 134.487 85.6724 137.197 85.0279 138.977C84.2211 141.207 82.451 139.219 81.3174 138.765C74.1589 135.899 66.9865 134.495 59.6205 137.925C54.8219 140.16 51.1079 143.404 51.1831 149.161C51.2581 154.907 55.0167 158.112 59.8819 160.206C67.2752 163.388 74.4726 161.931 81.6619 159.259C82.937 158.785 84.9199 156.57 85.806 158.926C86.5794 160.981 86.9471 163.777 83.55 165.066C78.4383 167.016 73.0112 168.007 67.5405 167.99V167.99Z" fill="#010101"/>
<path d="M291.872 129.976C294.267 129.536 296.781 130.684 299.403 130.982C303.92 131.494 303.231 134.843 302.853 137.697C302.548 139.994 300.834 138.743 299.803 138.256C296.438 136.667 293.013 135.424 289.235 136.15C287.437 136.496 285.464 137.073 285.065 139.179C284.691 141.155 286.412 142.146 287.821 142.93C291.01 144.702 294.348 146.204 297.557 147.942C303.172 150.983 305.308 154.494 304.507 159.409C303.59 165.033 299.201 166.717 294.485 167.623C289.381 168.641 284.082 167.79 279.553 165.227C278.273 164.518 276.75 163.918 276.999 161.986C277.204 160.394 276.19 158.307 277.611 157.312C279.075 156.287 280.219 158.234 281.414 158.985C284.743 161.079 288.212 162.547 292.23 161.716C294.062 161.337 295.9 160.523 296.442 158.598C297.044 156.463 295.307 155.177 293.797 154.26C290.823 152.453 287.667 150.948 284.604 149.286C278.1 145.756 275.99 142.577 276.981 137.864C277.874 133.615 282.751 130.422 289.054 129.984C289.881 129.927 290.717 129.976 291.872 129.976Z" fill="#010101"/>
<path d="M456.449 118.037C451.461 94.3043 437.355 81.6826 416.216 82.0374C394.614 82.4006 381.474 94.5565 377.306 118.035C373.466 110.74 377.053 97.4632 385.104 89.1661C397.977 75.8991 419.755 72.4425 436.856 80.9517C452.101 88.5376 458.877 101.363 456.449 118.037Z" fill="white"/>
<path d="M153.46 117.482C149.122 93.8052 134.308 81.3326 112.425 81.9975C90.3598 82.668 77.5203 95.3226 74.7376 119.143C70.6002 113.883 74.0084 99.3871 81.4924 90.4137C93.1706 76.4115 117.889 72.4858 135.195 81.8128C147.265 88.3177 157.046 102.074 153.46 117.482Z" fill="white"/>
<path d="M130.007 71.2864C151.442 67.8696 173.06 69.4684 194.656 70.0253C173.119 70.3207 151.629 72.0827 130.007 71.2864Z" fill="white"/>
<path d="M155.094 55.0981C157.982 56.6876 161.159 55.7237 164.184 56.1262C157.968 57.9605 151.643 56.667 145.268 56.2384L155.094 55.0981Z" fill="white"/>
<path d="M238.983 53.1313C240.655 54.7473 242.329 56.3648 244.003 57.9839C239.392 57.9839 234.781 57.9839 230.171 57.9839L230.125 57.1974L238.983 53.1313Z" fill="white"/>
</svg>
